<svg xmlns="http://www.w3.org/2000/svg" width="1280" height="640" viewBox="0 0 1280 640" fill="none">
  <title>Acción Humana — personas, poder y trazabilidad</title>
  <defs>
    <linearGradient id="paper" x1="0" y1="0" x2="1280" y2="640" gradientUnits="userSpaceOnUse">
      <stop stop-color="#fbfaf7"/>
      <stop offset=".58" stop-color="#f7f1e8"/>
      <stop offset="1" stop-color="#fbfaf7"/>
    </linearGradient>
    <radialGradient id="warm" cx="0" cy="0" r="1" gradientUnits="userSpaceOnUse" gradientTransform="translate(925 198) rotate(126) scale(520 390)">
      <stop stop-color="#d1872a" stop-opacity=".2"/>
      <stop offset=".65" stop-color="#d1872a" stop-opacity=".04"/>
      <stop offset="1" stop-color="#d1872a" stop-opacity="0"/>
    </radialGradient>
    <pattern id="fine-grid" width="48" height="48" patternUnits="userSpaceOnUse">
      <path d="M48 0H0V48" stroke="#0a2a53" stroke-opacity=".045"/>
    </pattern>
  </defs>

  <rect width="1280" height="640" fill="url(#paper)"/>
  <rect width="1280" height="640" fill="url(#fine-grid)"/>
  <rect width="1280" height="640" fill="url(#warm)"/>

  <g transform="translate(96 96)">
    <rect width="108" height="108" rx="30" fill="#0a2a53"/>
    <g transform="translate(22 22)">
      <circle cx="32" cy="21" r="7.5" fill="#d1872a"/>
      <path d="M32 31v20" stroke="#d1872a" stroke-width="8" stroke-linecap="round"/>
    </g>
  </g>

  <text x="96" y="296" fill="#0a2a53" font-family="Georgia, 'Times New Roman', serif" font-size="86" font-weight="700" letter-spacing="-2.6">Acción Humana</text>
  <text x="101" y="354" fill="#516171" font-family="Arial, Helvetica, sans-serif" font-size="25" letter-spacing="2.8">PERSONAS, PODER Y TRAZABILIDAD</text>
  <path d="M102 386H542" stroke="#d1872a" stroke-width="4" stroke-linecap="round"/>

  <g transform="translate(744 112)">
    <rect x="78" y="18" width="316" height="396" rx="18" fill="#fbfaf7" fill-opacity=".72" stroke="#0a2a53" stroke-opacity=".2" stroke-width="2"/>
    <path d="M104 88H366M104 144H366M104 200H366M104 312H366" stroke="#0a2a53" stroke-opacity=".16" stroke-width="4" stroke-linecap="round"/>
    <path d="M104 256H244" stroke="#0a2a53" stroke-opacity=".16" stroke-width="4" stroke-linecap="round"/>
    <circle cx="236" cy="188" r="28" fill="#d1872a"/>
    <path d="M236 232v76" stroke="#d1872a" stroke-width="14" stroke-linecap="round"/>
  </g>
</svg>
