<svg xmlns="http://www.w3.org/2000/svg" width="1280" height="640" viewBox="0 0 1280 640" fill="none">
  <title>Acción Humana — personas, poder y trazabilidad</title>
  <defs>
    <radialGradient id="glow" cx="0" cy="0" r="1" gradientUnits="userSpaceOnUse" gradientTransform="translate(1010 92) rotate(139) scale(600 460)">
      <stop stop-color="#f1c27d" stop-opacity=".42"/>
      <stop offset=".55" stop-color="#f1c27d" stop-opacity=".08"/>
      <stop offset="1" stop-color="#f1c27d" stop-opacity="0"/>
    </radialGradient>
    <linearGradient id="veil" x1="693" y1="102" x2="1110" y2="520" gradientUnits="userSpaceOnUse">
      <stop stop-color="#0a2a53" stop-opacity=".12"/>
      <stop offset="1" stop-color="#0a2a53" stop-opacity=".02"/>
    </linearGradient>
    <pattern id="grid" width="44" height="44" patternUnits="userSpaceOnUse">
      <path d="M44 0H0V44" stroke="#0a2a53" stroke-opacity=".055"/>
    </pattern>
  </defs>
  <rect width="1280" height="640" fill="#fbfaf7"/>
  <rect width="1280" height="640" fill="url(#grid)"/>
  <rect width="1280" height="640" fill="url(#glow)"/>
  <path d="M70 522C183 468 310 482 429 514C539 544 649 587 760 559C863 533 916 454 1014 422C1089 397 1165 410 1212 430" stroke="#0a2a53" stroke-opacity=".08" stroke-width="2"/>

  <g transform="translate(88 90)">
    <rect width="104" height="104" rx="28" fill="#0a2a53"/>
    <g transform="translate(20 20)">
      <path d="M14 51V17c0-2.2 1.8-4 4-4h32v38H14Z" stroke="#fbfaf7" stroke-width="3" stroke-linejoin="round"/>
      <path d="M45 13C39 24 33 38 22 51" stroke="#fbfaf7" stroke-width="3" stroke-linecap="round"/>
      <path d="M24 24 36 33 27 43" stroke="#fbfaf7" stroke-width="2.7" stroke-linecap="round" stroke-linejoin="round"/>
      <circle cx="24" cy="24" r="4.1" fill="#d1872a"/>
      <circle cx="36" cy="33" r="4.1" fill="#d1872a"/>
      <circle cx="27" cy="43" r="4.1" fill="#d1872a"/>
    </g>
  </g>

  <text x="88" y="270" fill="#0a2a53" font-family="Georgia, 'Times New Roman', serif" font-size="82" font-weight="700" letter-spacing="-2.4">Acción Humana</text>
  <text x="93" y="324" fill="#516171" font-family="Arial, Helvetica, sans-serif" font-size="24" letter-spacing="2.6">PERSONAS, PODER Y TRAZABILIDAD</text>
  <path d="M94 352H512" stroke="#d1872a" stroke-width="4" stroke-linecap="round"/>
  <text x="92" y="430" fill="#0a2a53" font-family="Georgia, 'Times New Roman', serif" font-size="34" font-style="italic">El Estado no existe fuera de las personas que lo conforman.</text>
  <text x="94" y="484" fill="#516171" font-family="Arial, Helvetica, sans-serif" font-size="22">Datos públicos para seguir quién decidió qué.</text>

  <g transform="translate(706 104)">
    <path d="M54 420V54c0-18 14-32 32-32h348v398H54Z" fill="url(#veil)" stroke="#0a2a53" stroke-width="5" stroke-linejoin="round"/>
    <path d="M389 22C327 128 262 282 144 420" stroke="#0a2a53" stroke-width="6" stroke-linecap="round"/>
    <path d="M120 145 258 244 165 340" stroke="#0a2a53" stroke-width="5" stroke-linecap="round" stroke-linejoin="round"/>
    <circle cx="120" cy="145" r="26" fill="#fbfaf7" stroke="#d1872a" stroke-width="8"/>
    <circle cx="258" cy="244" r="26" fill="#fbfaf7" stroke="#d1872a" stroke-width="8"/>
    <circle cx="165" cy="340" r="26" fill="#fbfaf7" stroke="#d1872a" stroke-width="8"/>
    <path d="M84 80H398M84 386H398" stroke="#0a2a53" stroke-opacity=".18" stroke-width="4" stroke-linecap="round"/>
    <path d="M330 120H392M300 170H392M346 220H392" stroke="#0a2a53" stroke-opacity=".22" stroke-width="4" stroke-linecap="round"/>
  </g>
</svg>
