<svg xmlns="http://www.w3.org/2000/svg" width="1200" height="630" viewBox="0 0 1200 630" fill="none">
  <title>Acción Humana — personas, poder y trazabilidad</title>
  <defs>
    <linearGradient id="paper" x1="0" y1="0" x2="1200" y2="630" gradientUnits="userSpaceOnUse">
      <stop stop-color="#fbfaf7"/>
      <stop offset=".58" stop-color="#f7f1e8"/>
      <stop offset="1" stop-color="#fbfaf7"/>
    </linearGradient>
    <radialGradient id="warm" cx="0" cy="0" r="1" gradientUnits="userSpaceOnUse" gradientTransform="translate(858 198) rotate(126) scale(500 380)">
      <stop stop-color="#d1872a" stop-opacity=".2"/>
      <stop offset=".65" stop-color="#d1872a" stop-opacity=".04"/>
      <stop offset="1" stop-color="#d1872a" stop-opacity="0"/>
    </radialGradient>
    <pattern id="fine-grid" width="48" height="48" patternUnits="userSpaceOnUse">
      <path d="M48 0H0V48" stroke="#0a2a53" stroke-opacity=".045"/>
    </pattern>
  </defs>

  <rect width="1200" height="630" fill="url(#paper)"/>
  <rect width="1200" height="630" fill="url(#fine-grid)"/>
  <rect width="1200" height="630" fill="url(#warm)"/>

  <g transform="translate(86 88)">
    <rect width="108" height="108" rx="30" fill="#0a2a53"/>
    <g transform="translate(22 22)">
      <circle cx="32" cy="21" r="7.5" fill="#d1872a"/>
      <path d="M32 31v20" stroke="#d1872a" stroke-width="8" stroke-linecap="round"/>
    </g>
  </g>

  <text x="86" y="288" fill="#0a2a53" font-family="Georgia, 'Times New Roman', serif" font-size="82" font-weight="700" letter-spacing="-2.5">Acción Humana</text>
  <text x="91" y="344" fill="#516171" font-family="Arial, Helvetica, sans-serif" font-size="24" letter-spacing="2.6">PERSONAS, PODER Y TRAZABILIDAD</text>
  <path d="M92 376H516" stroke="#d1872a" stroke-width="4" stroke-linecap="round"/>

  <g transform="translate(690 110)">
    <rect x="70" y="18" width="300" height="382" rx="18" fill="#fbfaf7" fill-opacity=".72" stroke="#0a2a53" stroke-opacity=".2" stroke-width="2"/>
    <path d="M96 86H344M96 140H344M96 194H344M96 300H344" stroke="#0a2a53" stroke-opacity=".16" stroke-width="4" stroke-linecap="round"/>
    <path d="M96 248H230" stroke="#0a2a53" stroke-opacity=".16" stroke-width="4" stroke-linecap="round"/>
    <circle cx="220" cy="184" r="27" fill="#d1872a"/>
    <path d="M220 226v74" stroke="#d1872a" stroke-width="14" stroke-linecap="round"/>
  </g>
</svg>
