<svg xmlns="http://www.w3.org/2000/svg" width="1200" height="630" viewBox="0 0 1200 630">
  <title>España Transparente - datos públicos de la política española</title>
  <defs>
    <pattern id="grid" width="44" height="44" patternUnits="userSpaceOnUse">
      <path d="M44 0H0V44" fill="none" stroke="#1A1612" stroke-opacity=".055"/>
    </pattern>
    <radialGradient id="signal" cx="0" cy="0" r="1" gradientUnits="userSpaceOnUse" gradientTransform="translate(930 114) rotate(136) scale(520 360)">
      <stop stop-color="#A1242C" stop-opacity=".18"/>
      <stop offset=".7" stop-color="#A1242C" stop-opacity=".035"/>
      <stop offset="1" stop-color="#A1242C" stop-opacity="0"/>
    </radialGradient>
  </defs>
  <rect width="1200" height="630" fill="#FAFAF7"/>
  <rect width="1200" height="630" fill="url(#grid)"/>
  <rect width="1200" height="630" fill="url(#signal)"/>
  <rect x="64" y="64" width="1072" height="502" rx="34" fill="#FFFFFF" fill-opacity=".72" stroke="#D7C9BB" stroke-width="2"/>
  <g transform="translate(92 94) scale(1.32)">
    <polygon points="14,22 86,22 80.71,30.82 19.29,30.82" fill="#1A1612"/>
    <polygon points="21.68,34.79 78.32,34.79 73.03,43.62 26.97,43.62" fill="#1A1612"/>
    <polygon points="29.35,47.59 70.65,47.59 65.35,56.41 34.65,56.41" fill="#1A1612"/>
    <polygon points="37.03,60.38 62.97,60.38 57.68,69.21 42.32,69.21" fill="#1A1612"/>
    <polygon points="44.71,73.18 55.29,73.18 50,82 50,82" fill="#A1242C"/>
  </g>
  <text x="92" y="294" fill="#1A1612" font-family="Georgia, 'Times New Roman', serif" font-size="76" font-weight="700" letter-spacing="-2.6">España Transparente</text>
  <text x="97" y="354" fill="#6F6258" font-family="Arial, Helvetica, sans-serif" font-size="25" letter-spacing="2.4">DATOS PÚBLICOS DE LA POLÍTICA ESPAÑOLA</text>
  <path d="M98 386H612" stroke="#A1242C" stroke-width="4" stroke-linecap="round"/>
  <g transform="translate(832 130)">
    <rect width="252" height="332" rx="20" fill="#FAFAF7" stroke="#D7C9BB" stroke-width="2"/>
    <path d="M34 64H218M34 114H218M34 164H160M34 236H218" stroke="#1A1612" stroke-opacity=".18" stroke-width="5" stroke-linecap="round"/>
    <circle cx="196" cy="164" r="10" fill="#A1242C"/>
    <circle cx="160" cy="236" r="10" fill="#1A1612"/>
    <path d="M196 174V226L170 236" fill="none" stroke="#A1242C" stroke-width="4" stroke-linecap="round"/>
  </g>
</svg>
